:FULLY-SPECIFIED
:FORCE-ALL-JOINTS-BE-3DOF
:DEGREES
1427
root -2.08881 13.7328 12.6636 6.78415 27.0883 6.62582
lfemur 25.6359 -0.0857705 -10.3991
ltibia 16.5502 -0 0
lfoot -15.4484 34.4961 0.000165965
ltoes -24.0442 0 0
rfemur -65.8087 -21.5208 12.346
rtibia 74.0548 -0 0
rfoot -9.10489 10.5356 -0.000695531
rtoes 4.92206 -0 0
lowerback 10.2756 2.01877 -10.3284
upperback -3.32587 1.17955 -0.9614
thorax -9.62963 1.15638 4.5535
lowerneck 0.00705673 -11.6666 -10.4841
upperneck 5.92633 -16.044 9.71926
head 3.39443 -7.97543 3.89797
lclavicle 9.37161e-15 9.6659e-15 0
lhumerus -73.8138 -18.1922 104.422
lradius 100.904 -0 0
lwrist 58.3806 0 0
lhand -9.27656 41.9345 -0.000185199
lfingers 7.12502 -0 0
lthumb 16.6802 71.2375 -0.000178895
rclavicle 9.37161e-15 9.6659e-15 0
rhumerus 62.9893 -13.9229 -27.8067
rradius 82.2639 -0 0
rwrist 26.7152 0 0
rhand -43.652 -31.1666 0.000112552
rfingers 7.12502 -0 0
rthumb -16.4862 -60.4861 9.88725e-05
1428
root -2.09225 13.7302 12.6655 6.79288 27.0907 6.6352
lfemur 25.6194 -0.0866911 -10.386
ltibia 16.5763 -0 0
lfoot -15.4344 34.5033 0.000137295
ltoes -23.9585 0 0
rfemur -65.8432 -21.5506 12.3669
rtibia 74.0937 -0 0
rfoot -9.12238 10.56 -0.000575382
rtoes 4.97974 -0 0
lowerback 10.2678 2.01213 -10.3413
upperback -3.33471 1.16955 -0.958866
thorax -9.6339 1.15295 4.56538
lowerneck -0.00157639 -11.6615 -10.4739
upperneck 5.93442 -16.0357 9.70184
head 3.39513 -7.97126 3.89135
lclavicle 9.37161e-15 9.6659e-15 0
lhumerus -73.8293 -18.2121 104.446
lradius 100.891 -0 0
lwrist 58.4051 0 0
lhand -9.2746 41.8767 -0.000153206
lfingers 7.12502 -0 0
lthumb 16.6821 71.1796 -0.000147991
rclavicle 9.37161e-15 9.6659e-15 0
rhumerus 62.9722 -13.9158 -27.8012
rradius 82.2755 -0 0
rwrist 26.677 0 0
rhand -43.6434 -31.1586 9.31093e-05
rfingers 7.12502 -0 0
rthumb -16.4778 -60.4788 8.17929e-05
1429
root -2.09568 13.7275 12.6674 6.80083 27.0928 6.64374
lfemur 25.6044 -0.0875252 -10.3742
ltibia 16.6001 -0 0
lfoot -15.4217 34.51 0.000109681
ltoes -23.8807 0 0
rfemur -65.8745 -21.5778 12.3859
rtibia 74.1292 -0 0
rfoot -9.13828 10.5821 -0.000459655
rtoes 5.0322 -0 0
lowerback 10.2606 2.00608 -10.353
upperback -3.34276 1.16046 -0.956559
thorax -9.63779 1.14983 4.57618
lowerneck -0.00942705 -11.6568 -10.4646
upperneck 5.94178 -16.0281 9.686
head 3.39577 -7.96745 3.88532
lclavicle 9.37161e-15 9.6659e-15 0
lhumerus -73.8434 -18.2302 104.468
lradius 100.879 -0 0
lwrist 58.4275 0 0
lhand -9.27281 41.8241 -0.000122392
lfingers 7.12502 -0 0
lthumb 16.6838 71.1268 -0.000118226
rclavicle 9.37161e-15 9.6659e-15 0
rhumerus 62.9566 -13.9092 -27.7961
rradius 82.2861 -0 0
rwrist 26.6422 0 0
rhand -43.6355 -31.1514 7.43823e-05
rfingers 7.12502 -0 0
rthumb -16.4703 -60.4722 6.53419e-05
1430
root -2.09912 13.7249 12.6694 6.80792 27.0948 6.65136
lfemur 25.591 -0.088267 -10.3636
ltibia 16.6213 -0 0
lfoot -15.4104 34.5159 8.37967e-05
ltoes -23.8111 0 0
rfemur -65.9025 -21.602 12.4028
rtibia 74.1608 -0 0
rfoot -9.15248 10.6019 -0.000351177
rtoes 5.07902 -0 0
lowerback 10.2542 2.00069 -10.3635
upperback -3.34994 1.15235 -0.954499
thorax -9.64126 1.14705 4.58582
lowerneck -0.016433 -11.6527 -10.4563
upperneck 5.94834 -16.0214 9.67186
head 3.39634 -7.96406 3.87994
lclavicle 9.37161e-15 9.6659e-15 0
lhumerus -73.856 -18.2464 104.488
lradius 100.869 -0 0
lwrist 58.4474 0 0
lhand -9.27122 41.7772 -9.35074e-05
lfingers 7.12502 -0 0
lthumb 16.6853 71.0798 -9.03244e-05
rclavicle 9.37161e-15 9.6659e-15 0
rhumerus 62.9427 -13.9034 -27.7917
rradius 82.2955 -0 0
rwrist 26.6112 0 0
rhand -43.6285 -31.1449 5.68282e-05
rfingers 7.12502 -0 0
rthumb -16.4635 -60.4663 4.99214e-05
1431
root -2.10255 13.7223 12.6713 6.8141 27.0964 6.65799
lfemur 25.5793 -0.0889108 -10.3544
ltibia 16.6398 -0 0
lfoot -15.4005 34.521 6.03091e-05
ltoes -23.7506 0 0
rfemur -65.9269 -21.623 12.4176
rtibia 74.1883 -0 0
rfoot -9.16484 10.6191 -0.000252745
rtoes 5.11979 -0 0
lowerback 10.2487 1.99599 -10.3726
upperback -3.35619 1.14529 -0.952705
thorax -9.64428 1.14463 4.59421
lowerneck -0.022532 -11.649 -10.4491
upperneck 5.95405 -16.0155 9.65955
head 3.39684 -7.96111 3.87525
lclavicle 9.37161e-15 9.6659e-15 0
lhumerus -73.867 -18.2605 104.505
lradius 100.859 -0 0
lwrist 58.4648 0 0
lhand -9.26983 41.7363 -6.72978e-05
lfingers 7.12502 -0 0
lthumb 16.6867 71.0388 -6.5007e-05
rclavicle 9.37161e-15 9.6659e-15 0
rhumerus 62.9306 -13.8983 -27.7878
rradius 82.3037 -0 0
rwrist 26.5842 0 0
rhand -43.6224 -31.1393 4.08997e-05
rfingers 7.12502 -0 0
rthumb -16.4576 -60.4612 3.59288e-05
